<?xml version="1.0" standalone="no"?>
<!DOCTYPE svg PUBLIC "-//W3C//DTD SVG 20010904//EN"
 "http://www.w3.org/TR/2001/REC-SVG-20010904/DTD/svg10.dtd">
<svg version="1.0" xmlns="http://www.w3.org/2000/svg"
 width="500.000000pt" height="500.000000pt" viewBox="0 0 500.000000 500.000000"
 preserveAspectRatio="xMidYMid meet">

<g transform="translate(0.000000,500.000000) scale(0.100000,-0.100000)"
fill="#000000" stroke="none">
<path d="M2417 3593 c-9 -8 -9 -80 -1 -110 12 -45 27 -24 20 27 -4 28 -3 50 1
50 4 0 23 -23 41 -50 46 -72 62 -67 62 20 0 84 -18 94 -22 13 l-3 -57 -39 57
c-39 57 -47 63 -59 50z"/>
<path d="M2606 3573 c-2 -10 -7 -41 -11 -69 l-7 -52 37 -4 c45 -5 76 10 93 44
17 37 1 73 -39 87 -45 16 -67 14 -73 -6z m75 -13 c36 -20 16 -100 -26 -100
-34 0 -44 11 -38 48 9 67 20 75 64 52z"/>
<path d="M2323 3567 c3 -8 8 -39 12 -70 4 -32 12 -57 17 -57 9 0 2 115 -9 133
-8 13 -25 8 -20 -6z"/>
<path d="M2227 3563 c-3 -5 -8 -35 -12 -68 l-7 -60 -43 48 c-65 71 -79 63 -49
-29 22 -64 39 -82 30 -31 -4 21 -10 46 -12 55 -3 9 13 -3 35 -28 22 -24 43
-41 47 -37 4 3 10 32 13 64 l7 58 18 -52 c10 -29 22 -53 27 -53 12 0 12 -2
-11 74 -19 61 -32 78 -43 59z"/>
<path d="M2795 3524 c4 -21 9 -56 9 -76 2 -34 16 -69 16 -38 0 8 23 35 52 62
29 27 45 48 37 48 -8 0 -28 -13 -44 -30 -16 -16 -32 -30 -36 -30 -4 0 -10 20
-13 45 -4 24 -12 48 -18 51 -7 5 -8 -5 -3 -32z"/>
<path d="M2360 3263 c-46 -8 -153 -44 -204 -70 -267 -135 -426 -393 -426 -693
0 -344 206 -627 540 -740 82 -28 274 -38 376 -21 265 46 500 252 590 516 23
66 28 103 32 208 5 146 -6 217 -49 326 -93 232 -309 416 -548 467 -61 13 -251
17 -311 7z m337 -189 c6 -16 -9 -176 -52 -571 -13 -122 -26 -273 -30 -335 l-6
-113 81 164 c75 154 126 238 137 228 2 -3 -7 -22 -21 -44 -14 -21 -57 -112
-96 -203 -78 -180 -84 -190 -111 -190 -17 0 -19 9 -19 88 0 93 15 264 55 622
27 245 30 305 15 279 -5 -9 -44 -130 -86 -270 -42 -140 -85 -271 -95 -291 -42
-83 -63 -58 -77 92 -15 156 -33 270 -42 270 -11 0 -43 -141 -75 -325 -33 -197
-42 -227 -63 -223 -15 3 -17 22 -20 148 -2 80 0 245 3 368 6 184 10 222 22
222 12 0 13 -45 9 -322 -6 -346 -4 -351 39 -110 32 184 63 277 90 277 27 0 41
-55 61 -234 9 -80 20 -150 25 -155 13 -14 30 35 98 269 60 212 104 339 123
363 14 16 27 15 35 -4z"/>
<path d="M1454 2606 c-10 -26 4 -48 28 -44 17 2 23 10 23 28 0 18 -6 26 -23
28 -13 2 -25 -3 -28 -12z m36 -16 c0 -5 -4 -10 -10 -10 -5 0 -10 5 -10 10 0 6
5 10 10 10 6 0 10 -4 10 -10z"/>
<path d="M3474 2606 c-10 -26 4 -48 28 -44 17 2 23 10 23 28 0 18 -6 26 -23
28 -13 2 -25 -3 -28 -12z m36 -16 c0 -5 -4 -10 -10 -10 -5 0 -10 5 -10 10 0 6
5 10 10 10 6 0 10 -4 10 -10z"/>
<path d="M1951 1629 c-31 -57 -35 -96 -6 -56 13 17 15 18 46 2 41 -22 79 -8
79 29 0 27 -19 50 -59 71 -27 13 -27 13 -60 -46z m77 15 c23 -16 29 -48 11
-59 -13 -8 -69 14 -69 27 0 14 20 48 28 48 4 0 18 -7 30 -16z"/>
<path d="M2958 1654 c-34 -18 -34 -22 -3 -84 29 -57 51 -77 41 -37 -5 20 -2
29 14 37 11 6 27 21 36 35 34 52 -24 84 -88 49z m79 -21 c4 -10 -2 -23 -16
-35 -30 -24 -43 -23 -60 4 -12 19 -11 23 5 35 25 18 63 16 71 -4z"/>
<path d="M2111 1555 c-12 -31 -21 -60 -21 -65 0 -13 70 -42 90 -37 13 3 -4 13
-57 32 -6 2 -9 13 -6 25 6 21 20 22 67 4 9 -3 16 -1 16 5 0 6 -4 11 -9 11 -5
0 -21 4 -35 9 -18 8 -23 15 -19 31 4 14 11 19 22 15 9 -4 30 -8 46 -11 l30 -4
-30 14 c-70 32 -71 32 -94 -29z"/>
<path d="M2790 1580 c-43 -43 -11 -120 50 -120 41 0 73 36 66 74 -13 63 -75
87 -116 46z m78 -12 c22 -29 23 -57 3 -77 -26 -26 -36 -26 -61 -1 -22 22 -26
60 -8 78 16 16 53 15 66 0z"/>
<path d="M2254 1561 c4 -6 16 -11 28 -11 19 0 20 -4 13 -65 -8 -81 8 -87 21
-7 9 54 10 57 37 55 15 -1 27 2 27 7 0 8 -15 12 -94 26 -28 5 -37 4 -32 -5z"/>
<path d="M2692 1531 c4 -26 1 -30 -25 -35 -49 -10 -57 -7 -57 18 0 14 -5 28
-12 32 -8 5 -9 -7 -5 -47 4 -30 7 -62 7 -71 0 -10 6 -18 14 -18 9 0 12 8 8 26
-5 30 10 44 49 44 21 0 28 -6 33 -30 3 -16 10 -30 17 -30 6 0 8 11 5 28 -3 15
-8 46 -11 70 -4 23 -11 42 -17 42 -6 0 -8 -13 -6 -29z"/>
<path d="M2444 1540 c-12 -4 -24 -15 -27 -24 -8 -19 18 -46 44 -46 33 0 59
-18 52 -36 -5 -13 -16 -15 -56 -10 -57 6 -54 -11 4 -20 26 -4 41 -1 59 14 34
28 18 54 -39 65 -32 6 -41 13 -39 25 3 13 14 17 46 16 45 -1 56 10 20 20 -29
7 -38 7 -64 -4z"/>
</g>
</svg>
